<svg width="193" height="45" viewBox="0 0 193 45" fill="none" xmlns="http://www.w3.org/2000/svg">
    <path
        d="M56.1881 25.3029C54.6643 25.3029 53.3333 25.0184 52.195 24.4492C51.0751 23.8617 50.2031 23.0356 49.5789 21.9708C48.973 20.9059 48.6701 19.6575 48.6701 18.2255C48.6701 16.8119 48.9822 15.5726 49.6064 14.5078C50.2306 13.4246 51.1027 12.5893 52.2226 12.0018C53.3425 11.3959 54.6368 11.093 56.1055 11.093C57.1153 11.093 58.0791 11.2766 58.9971 11.6438C59.915 11.9926 60.732 12.5158 61.448 13.2135L59.0522 15.8296C58.2811 15.1136 57.3723 14.7556 56.3258 14.7556C55.3344 14.7556 54.5266 15.0769 53.9024 15.7195C53.2782 16.3437 52.9661 17.1699 52.9661 18.198C52.9661 19.2261 53.269 20.0614 53.8749 20.704C54.4991 21.3282 55.3161 21.6403 56.3258 21.6403C57.4457 21.6403 58.4004 21.2456 59.1898 20.4561L61.6408 23.0448C60.117 24.5502 58.2994 25.3029 56.1881 25.3029ZM72.1764 11.093C73.8471 11.093 75.169 11.653 76.142 12.7729C77.1334 13.8928 77.6291 15.4074 77.6291 17.3167L77.6291 25L73.3055 25L73.3055 17.5646C73.3055 16.6833 73.0852 15.9949 72.6446 15.4992C72.2223 15.0035 71.6257 14.7556 70.8546 14.7556C70.0101 14.7556 69.3216 15.0402 68.7892 15.6093C68.2751 16.1785 68.0181 16.922 68.0181 17.84L68.0181 25L63.6946 25L63.6946 5.72298L68.0181 5.72299L68.0181 12.883C69.0646 11.6897 70.4507 11.093 72.1764 11.093ZM94.9829 11.3959L94.9829 25L91.2377 25L90.9623 23.3752C89.8057 24.642 88.3002 25.2754 86.446 25.2754C85.1792 25.2754 84.0501 24.9816 83.0587 24.3942C82.0857 23.7883 81.3238 22.953 80.773 21.8881C80.2222 20.805 79.9468 19.5749 79.9468 18.198C79.9468 16.821 80.2222 15.6002 80.773 14.5353C81.3238 13.4522 82.0857 12.6168 83.0587 12.0293C84.0501 11.4235 85.1792 11.1206 86.446 11.1206C87.3639 11.1206 88.2084 11.2858 88.9795 11.6162C89.7506 11.9284 90.4115 12.3873 90.9623 12.9932L91.2377 11.3959L94.9829 11.3959ZM87.4649 21.6403C88.4196 21.6403 89.1998 21.3282 89.8057 20.704C90.4115 20.0614 90.7144 19.2261 90.7144 18.198C90.7144 17.1699 90.4115 16.3437 89.8057 15.7195C89.1998 15.0769 88.4196 14.7556 87.4649 14.7556C86.5102 14.7556 85.73 15.0769 85.1241 15.7195C84.5366 16.3621 84.2429 17.1882 84.2429 18.198C84.2429 19.2077 84.5366 20.0339 85.1241 20.6764C85.7299 21.319 86.5102 21.6403 87.4649 21.6403ZM105.964 11.093C106.588 11.093 107.212 11.2124 107.836 11.451C108.461 11.6713 109.002 12.0018 109.461 12.4424L107.644 15.6093C107.258 15.3707 106.9 15.1963 106.57 15.0861C106.239 14.976 105.89 14.9209 105.523 14.9209C104.605 14.9209 103.88 15.2146 103.348 15.8021C102.815 16.3896 102.549 17.2525 102.549 18.3907L102.549 25L98.2254 25L98.2254 11.3959L101.998 11.3959L102.329 13.1033C103.21 11.7631 104.422 11.093 105.964 11.093ZM113.094 10.0466C112.342 10.0466 111.727 9.82624 111.249 9.38563C110.79 8.94501 110.561 8.38506 110.561 7.70577C110.561 7.00813 110.8 6.439 111.277 5.99838C111.754 5.55776 112.36 5.33745 113.094 5.33745C113.829 5.33745 114.435 5.55776 114.912 5.99838C115.389 6.439 115.628 7.00813 115.628 7.70577C115.628 8.38506 115.389 8.94501 114.912 9.38563C114.453 9.82624 113.847 10.0466 113.094 10.0466ZM110.919 11.3959L115.243 11.3959L115.242 25L110.919 25L110.919 11.3959ZM128.251 24.4768C127.187 25.0092 125.984 25.2754 124.644 25.2754C123.157 25.2754 121.982 24.8623 121.119 24.0362C120.256 23.1916 119.825 21.8423 119.825 19.988L119.825 14.8383L117.511 14.8383L117.511 11.3959L119.825 11.3959L119.825 8.0087L124.121 7.54054L124.121 11.3959L127.508 11.3959L127.508 14.8383L124.121 14.8383L124.121 19.988C124.121 20.5388 124.258 20.9518 124.534 21.2272C124.809 21.4843 125.186 21.6128 125.663 21.6128C126.195 21.6128 126.718 21.4843 127.233 21.2272L128.251 24.4768ZM139.648 11.3959L144.329 11.396L135.847 30.8933L131.248 30.8933L133.892 24.8072L128.605 11.3959L133.259 11.3959L134.828 15.692L136.316 20.1257L137.913 15.692L139.648 11.3959ZM151.77 5.723L156.093 5.723L156.093 25L151.77 25L151.77 5.723ZM173.619 11.396L173.619 25L169.873 25L169.598 23.3752C168.441 24.642 166.936 25.2754 165.082 25.2754C163.815 25.2754 162.686 24.9817 161.694 24.3942C160.721 23.7883 159.959 22.953 159.409 21.8882C158.858 20.805 158.582 19.5749 158.582 18.198C158.582 16.8211 158.858 15.6002 159.409 14.5354C159.959 13.4522 160.721 12.6168 161.694 12.0293C162.686 11.4235 163.815 11.1206 165.082 11.1206C166 11.1206 166.844 11.2858 167.615 11.6163C168.386 11.9284 169.047 12.3873 169.598 12.9932L169.873 11.396L173.619 11.396ZM166.1 21.6403C167.055 21.6403 167.835 21.3282 168.441 20.704C169.047 20.0614 169.35 19.2261 169.35 18.198C169.35 17.1699 169.047 16.3437 168.441 15.7195C167.835 15.0769 167.055 14.7557 166.1 14.7557C165.146 14.7557 164.366 15.0769 163.76 15.7195C163.172 16.3621 162.878 17.1882 162.878 18.198C162.878 19.2077 163.172 20.0339 163.76 20.6765C164.366 21.319 165.146 21.6403 166.1 21.6403ZM185.398 11.1206C186.665 11.1206 187.794 11.4235 188.785 12.0293C189.777 12.6168 190.548 13.4522 191.098 14.5354C191.649 15.6002 191.925 16.8211 191.925 18.198C191.925 19.5749 191.649 20.805 191.098 21.8882C190.548 22.953 189.777 23.7883 188.785 24.3942C187.794 24.9817 186.665 25.2754 185.398 25.2754C183.544 25.2754 182.038 24.642 180.882 23.3752L180.606 25L176.861 25L176.861 5.723L181.185 5.72301L181.185 12.6903C182.323 11.6438 183.727 11.1206 185.398 11.1206ZM184.379 21.6403C185.334 21.6403 186.114 21.3282 186.72 20.704C187.326 20.0614 187.629 19.2261 187.629 18.198C187.629 17.1699 187.326 16.3437 186.72 15.7195C186.114 15.077 185.334 14.7557 184.379 14.7557C183.424 14.7557 182.644 15.0769 182.038 15.7195C181.451 16.3621 181.157 17.1882 181.157 18.198C181.157 19.2077 181.451 20.0339 182.038 20.6765C182.644 21.319 183.424 21.6403 184.379 21.6403Z"
        fill="black" />
    <path
        d="M53.5716 30.0181C53.0361 30.0181 52.6291 30.1734 52.3507 30.484C52.0829 30.7946 51.949 31.3087 51.949 32.0263L51.949 32.8938L54.5998 32.8938L54.5998 33.5204L51.949 33.5204L51.949 40.8301L51.2743 40.8301L51.2743 33.5204L49.6517 33.5204L49.6517 32.8938L51.2743 32.8938L51.2743 32.0263C51.2743 30.2698 52.0347 29.3916 53.5556 29.3916C54.1768 29.3916 54.7069 29.5736 55.146 29.9378L54.7926 30.4198C54.4499 30.152 54.0429 30.0181 53.5716 30.0181ZM59.26 40.9747C58.4889 40.9747 57.7927 40.7979 57.1715 40.4445C56.561 40.0911 56.0791 39.6038 55.7256 38.9826C55.3829 38.3507 55.2115 37.6438 55.2115 36.8619C55.2115 36.0801 55.3829 35.3786 55.7256 34.7574C56.0791 34.1255 56.561 33.6328 57.1715 33.2794C57.7927 32.9259 58.4889 32.7492 59.26 32.7492C60.0418 32.7492 60.738 32.9259 61.3485 33.2794C61.9697 33.6328 62.4516 34.1255 62.7944 34.7574C63.1478 35.3786 63.3245 36.0801 63.3245 36.8619C63.3245 37.6438 63.1478 38.3507 62.7944 38.9826C62.4516 39.6038 61.9697 40.0911 61.3485 40.4445C60.738 40.7979 60.0418 40.9747 59.26 40.9747ZM59.26 40.3321C59.9026 40.3321 60.481 40.1821 60.9951 39.8822C61.5091 39.5823 61.9108 39.17 62.2 38.6452C62.4998 38.1097 62.6498 37.5153 62.6498 36.8619C62.6498 36.2086 62.4998 35.6196 62.2 35.0948C61.9108 34.5593 61.5091 34.1416 60.9951 33.8417C60.481 33.5418 59.9026 33.3918 59.26 33.3918C58.6174 33.3918 58.039 33.5418 57.5249 33.8417C57.0109 34.1416 56.6092 34.5593 56.32 35.0948C56.0309 35.6196 55.8863 36.2086 55.8863 36.8619C55.8863 37.5153 56.0309 38.1097 56.32 38.6452C56.6092 39.17 57.0109 39.5823 57.5249 39.8822C58.039 40.1821 58.6174 40.3321 59.26 40.3321ZM72.3768 32.8938L72.3768 40.8301L71.7342 40.8301L71.7342 39.2396C71.4236 39.7644 71.0006 40.1821 70.4651 40.4927C69.9295 40.7926 69.3298 40.9425 68.6657 40.9425C67.6376 40.9425 66.8289 40.6373 66.2399 40.0268C65.6508 39.4163 65.3563 38.5649 65.3563 37.4724L65.3563 32.8938L66.031 32.8938L66.031 37.4403C66.031 38.3614 66.2613 39.0683 66.7218 39.5609C67.1931 40.0536 67.8571 40.2999 68.7139 40.2999C69.2923 40.2999 69.8064 40.1714 70.2562 39.9144C70.7167 39.6466 71.0702 39.2878 71.3165 38.838C71.5736 38.3774 71.7021 37.8687 71.7021 37.3118L71.7021 32.8938L72.3768 32.8938ZM78.7982 32.7814C79.8478 32.7814 80.6671 33.0866 81.2562 33.6971C81.856 34.3076 82.1558 35.159 82.1558 36.2515L82.1558 40.8301L81.4811 40.8301L81.4811 36.2836C81.4811 35.3625 81.2455 34.6556 80.7742 34.163C80.303 33.6703 79.6336 33.424 78.7661 33.424C78.177 33.424 77.6468 33.5579 77.1756 33.8256C76.7151 34.0827 76.3563 34.4414 76.0992 34.902C75.8422 35.3518 75.7136 35.8552 75.7136 36.4121L75.7136 40.8301L75.0389 40.8301L75.0389 32.8938L75.6815 32.8938L75.6815 34.4522C75.9921 33.9381 76.4205 33.5311 76.9667 33.2312C77.513 32.9313 78.1234 32.7814 78.7982 32.7814ZM92.2057 29.5844L92.2057 40.8301L91.5631 40.8301L91.547 39.079C91.2471 39.6573 90.7919 40.1179 90.1815 40.4606C89.5817 40.7926 88.9016 40.9586 88.1412 40.9586C87.3807 40.9586 86.6953 40.7872 86.0848 40.4445C85.485 40.0911 85.0138 39.6038 84.6711 38.9826C84.339 38.3614 84.173 37.6545 84.173 36.862C84.173 36.0694 84.339 35.3625 84.6711 34.7413C85.0138 34.1201 85.485 33.6382 86.0848 33.2955C86.6953 32.942 87.3807 32.7653 88.1412 32.7653C88.9016 32.7653 89.5817 32.9313 90.1815 33.2633C90.7812 33.5953 91.2311 34.0505 91.531 34.6289L91.531 29.5844L92.2057 29.5844ZM88.1894 40.3321C88.832 40.3321 89.405 40.1875 89.9084 39.8983C90.4224 39.6091 90.8187 39.2021 91.0972 38.6773C91.3864 38.1525 91.531 37.5474 91.531 36.862C91.531 36.1765 91.3864 35.5714 91.0972 35.0466C90.8187 34.5218 90.4224 34.1148 89.9084 33.8256C89.405 33.5364 88.832 33.3918 88.1894 33.3918C87.536 33.3918 86.9577 33.5364 86.4543 33.8256C85.9509 34.1148 85.5547 34.5218 85.2655 35.0466C84.987 35.5714 84.8478 36.1765 84.8478 36.862C84.8478 37.5474 84.987 38.1525 85.2655 38.6773C85.5547 39.2021 85.9509 39.6091 86.4543 39.8983C86.9577 40.1875 87.536 40.3321 88.1894 40.3321ZM102.372 32.8938L102.372 40.8301L101.729 40.8301L101.713 39.0629C101.413 39.652 100.958 40.1179 100.348 40.4606C99.748 40.7926 99.0679 40.9586 98.3075 40.9586C97.5364 40.9586 96.8509 40.7872 96.2511 40.4445C95.6514 40.0911 95.1801 39.6038 94.8374 38.9826C94.5054 38.3614 94.3394 37.6545 94.3394 36.862C94.3394 36.0694 94.5054 35.3625 94.8374 34.7413C95.1801 34.1201 95.6514 33.6382 96.2511 33.2955C96.8509 32.942 97.5364 32.7653 98.3075 32.7653C99.0679 32.7653 99.748 32.9367 100.348 33.2794C100.958 33.6221 101.413 34.088 101.713 34.6771L101.729 32.8938L102.372 32.8938ZM98.3557 40.3321C98.9983 40.3321 99.5713 40.1875 100.075 39.8983C100.589 39.6091 100.985 39.2021 101.264 38.6773C101.553 38.1525 101.697 37.5474 101.697 36.862C101.697 36.1765 101.553 35.5714 101.264 35.0466C100.985 34.5218 100.589 34.1148 100.075 33.8256C99.5713 33.5364 98.9983 33.3918 98.3557 33.3918C97.7024 33.3918 97.124 33.5364 96.6206 33.8256C96.1173 34.1148 95.721 34.5218 95.4318 35.0466C95.1533 35.5714 95.0141 36.1765 95.0141 36.862C95.0141 37.5474 95.1533 38.1525 95.4318 38.6773C95.721 39.2021 96.1173 39.6091 96.6206 39.8983C97.124 40.1875 97.7024 40.3321 98.3557 40.3321ZM109.759 40.5409C109.181 40.8301 108.64 40.9747 108.137 40.9747C107.334 40.9747 106.771 40.7658 106.45 40.3481C106.129 39.9304 105.968 39.2985 105.968 38.4524L105.968 33.5204L104.265 33.5204L104.265 32.8938L105.968 32.8938L105.968 30.5483L106.643 30.484L106.643 32.8938L109.39 32.8938L109.39 33.5204L106.643 33.5204L106.643 38.4524C106.643 39.0843 106.745 39.5609 106.948 39.8822C107.151 40.2035 107.548 40.3642 108.137 40.3642C108.319 40.3642 108.538 40.3267 108.796 40.2517C109.053 40.1768 109.288 40.0857 109.502 39.9786L109.759 40.5409ZM111.743 31.0142C111.561 31.0142 111.411 30.9606 111.293 30.8535C111.186 30.7357 111.132 30.5911 111.132 30.4198C111.132 30.2484 111.186 30.1038 111.293 29.986C111.411 29.8682 111.561 29.8093 111.743 29.8093C111.914 29.8093 112.059 29.8682 112.177 29.986C112.294 30.1038 112.353 30.2484 112.353 30.4198C112.353 30.5911 112.294 30.7357 112.177 30.8535C112.059 30.9606 111.914 31.0142 111.743 31.0142ZM111.406 32.8938L112.08 32.8938L112.08 40.8301L111.406 40.8301L111.406 32.8938ZM118.25 40.9747C117.479 40.9747 116.783 40.798 116.161 40.4445C115.551 40.0911 115.069 39.6038 114.715 38.9826C114.373 38.3507 114.201 37.6438 114.201 36.862C114.201 36.0801 114.373 35.3786 114.715 34.7574C115.069 34.1255 115.551 33.6328 116.161 33.2794C116.783 32.926 117.479 32.7492 118.25 32.7492C119.032 32.7492 119.728 32.926 120.338 33.2794C120.96 33.6328 121.441 34.1255 121.784 34.7574C122.138 35.3786 122.314 36.0801 122.314 36.862C122.314 37.6438 122.138 38.3507 121.784 38.9826C121.441 39.6038 120.96 40.0911 120.338 40.4445C119.728 40.798 119.032 40.9747 118.25 40.9747ZM118.25 40.3321C118.892 40.3321 119.471 40.1821 119.985 39.8822C120.499 39.5824 120.901 39.17 121.19 38.6452C121.49 38.1097 121.64 37.5153 121.64 36.862C121.64 36.2086 121.49 35.6196 121.19 35.0948C120.901 34.5593 120.499 34.1416 119.985 33.8417C119.471 33.5418 118.892 33.3918 118.25 33.3918C117.607 33.3918 117.029 33.5418 116.515 33.8417C116.001 34.1416 115.599 34.5593 115.31 35.0948C115.021 35.6196 114.876 36.2086 114.876 36.862C114.876 37.5153 115.021 38.1097 115.31 38.6452C115.599 39.17 116.001 39.5824 116.515 39.8822C117.029 40.1821 117.607 40.3321 118.25 40.3321ZM128.218 32.7814C129.267 32.7814 130.087 33.0866 130.676 33.6971C131.276 34.3076 131.576 35.159 131.576 36.2515L131.576 40.8301L130.901 40.8301L130.901 36.2836C130.901 35.3625 130.665 34.6557 130.194 34.163C129.723 33.6703 129.053 33.424 128.186 33.424C127.597 33.424 127.067 33.5579 126.595 33.8256C126.135 34.0827 125.776 34.4415 125.519 34.902C125.262 35.3518 125.133 35.8552 125.133 36.4121L125.133 40.8301L124.459 40.8301L124.459 32.8938L125.101 32.8938L125.101 34.4522C125.412 33.9381 125.84 33.5311 126.386 33.2312C126.933 32.9313 127.543 32.7814 128.218 32.7814Z"
        fill="black" />
    <path
        d="M38.6901 36.1419L38.6901 36.142L38.6955 36.1358C40.4086 34.1579 41.2752 31.9469 41.2752 29.5126C41.2752 27.8149 40.7863 26.1743 39.8208 24.5957L39.8209 24.5956L39.8164 24.5886C38.7981 23.0113 37.3574 21.6116 35.5057 20.3858L35.4193 20.3286H35.3157H32.2188H31.0205L32.0361 20.9646C32.7978 21.4416 33.6687 22.2935 34.4629 23.2064C35.2518 24.1132 35.9434 25.0548 36.3498 25.6906C37.0976 26.9091 37.4671 28.1813 37.4671 29.5126C37.4671 31.3437 36.8258 33.0237 35.5231 34.5622C34.1664 36.103 32.245 37.344 29.7384 38.2732C27.2363 39.1682 24.3141 39.6198 20.9655 39.6198C17.5116 39.6198 14.5376 39.1678 12.0365 38.2732C9.52785 37.3432 7.66219 36.119 6.41201 34.6159L6.41202 34.6159L6.40998 34.6135C5.10582 33.0743 4.46384 31.3935 4.46384 29.5615C4.46384 28.2294 4.83378 26.974 5.58067 25.7891L5.58068 25.7891L5.58278 25.7857C5.94379 25.1979 6.81269 24.2908 7.81886 23.3965C8.81824 22.5082 9.9105 21.67 10.6888 21.2141L11.7834 20.5728H10.5148H6.69328H6.5944L6.51059 20.6253C2.65233 23.0414 0.655767 26.0019 0.655768 29.5126C0.655768 31.9784 1.52178 34.1908 3.2374 36.138C4.94811 38.0797 7.34129 39.6053 10.3962 40.7268L10.3993 40.7279C13.4595 41.8182 16.9835 42.3595 20.9655 42.3595C24.8448 42.3595 28.3418 41.8178 31.452 40.7285L31.452 40.7285L31.4568 40.7267C34.5113 39.6055 36.9285 38.0807 38.6901 36.1419Z"
        fill="black" stroke="black" stroke-width="0.688465" />
    <path
        d="M19.2441 12.1439V4.24607C19.2441 4.06092 19.1696 3.88358 19.0373 3.75407L15.2209 0.0185547L15.0428 10.828C15.0398 11.0126 14.9627 11.1883 14.8288 11.3155L7.88447 17.9186H14.4249L19.0742 12.5968C19.1837 12.4714 19.2441 12.3105 19.2441 12.1439Z"
        fill="black" />
    <path
        d="M22.3418 12.0934V4.24607C22.3418 4.06092 22.4164 3.88358 22.5487 3.75407L26.365 0.0185547L26.543 10.8184C26.5461 11.0087 26.6278 11.1891 26.7688 11.317L34.0457 17.9186H28.538L22.5725 12.6076C22.4257 12.477 22.3418 12.2899 22.3418 12.0934Z"
        fill="black" />
    <path fill-rule="evenodd" clip-rule="evenodd"
        d="M18.6133 30.238L18.614 30.2386C18.6435 30.2613 18.673 30.284 18.7023 30.3065C18.8476 30.4184 18.9904 30.5284 19.1291 30.6375C19.7538 31.131 20.3556 31.5944 20.9574 31.5944V31.5938C21.5589 31.5934 22.1605 31.1302 22.7849 30.6369C22.9508 30.5063 23.1224 30.3741 23.2972 30.2396C24.9879 28.9377 26.9746 27.408 26.9746 24.7562C26.9746 21.8298 23.665 19.7543 20.957 22.5677C18.249 19.7543 14.9395 21.8298 14.9395 24.7562C14.9395 27.4067 16.9236 28.9358 18.6133 30.238Z"
        fill="black" />
    <path
        d="M38.6901 36.1419L38.6901 36.142L38.6955 36.1358C40.4086 34.1579 41.2752 31.9469 41.2752 29.5126C41.2752 27.8149 40.7863 26.1743 39.8208 24.5957L39.8209 24.5956L39.8164 24.5886C38.7981 23.0113 37.3574 21.6116 35.5057 20.3858L35.4193 20.3286H35.3157H32.2188H31.0205L32.0361 20.9646C32.7978 21.4416 33.6687 22.2935 34.4629 23.2064C35.2518 24.1132 35.9434 25.0548 36.3498 25.6906C37.0976 26.9091 37.4671 28.1813 37.4671 29.5126C37.4671 31.3437 36.8258 33.0237 35.5231 34.5622C34.1664 36.103 32.245 37.344 29.7384 38.2732C27.2363 39.1682 24.3141 39.6198 20.9655 39.6198C17.5116 39.6198 14.5376 39.1678 12.0365 38.2732C9.52785 37.3432 7.66219 36.119 6.41201 34.6159L6.41202 34.6159L6.40998 34.6135C5.10582 33.0743 4.46384 31.3935 4.46384 29.5615C4.46384 28.2294 4.83378 26.974 5.58067 25.7891L5.58068 25.7891L5.58278 25.7857C5.94379 25.1979 6.81269 24.2908 7.81886 23.3965C8.81824 22.5082 9.9105 21.67 10.6888 21.2141L11.7834 20.5728H10.5148H6.69328H6.5944L6.51059 20.6253C2.65233 23.0414 0.655767 26.0019 0.655768 29.5126C0.655768 31.9784 1.52178 34.1908 3.2374 36.138C4.94811 38.0797 7.34129 39.6053 10.3962 40.7268L10.3993 40.7279C13.4595 41.8182 16.9835 42.3595 20.9655 42.3595C24.8448 42.3595 28.3418 41.8178 31.452 40.7285L31.452 40.7285L31.4568 40.7267C34.5113 39.6055 36.9285 38.0807 38.6901 36.1419Z"
        fill="black" stroke="black" stroke-width="0.688465" />
    <path
        d="M19.2637 12.1439V4.24607C19.2637 4.06092 19.1891 3.88358 19.0568 3.75407L15.2405 0.0185547L15.0623 10.828C15.0593 11.0126 14.9822 11.1883 14.8484 11.3155L7.904 17.9186H14.4444L19.0937 12.5968C19.2033 12.4714 19.2637 12.3105 19.2637 12.1439Z"
        fill="black" />
    <path
        d="M22.3633 12.0934V4.24607C22.3633 4.06092 22.4379 3.88358 22.5702 3.75407L26.3865 0.0185547L26.5645 10.8184C26.5676 11.0087 26.6493 11.1891 26.7902 11.317L34.0672 17.9186H28.5595L22.594 12.6076C22.4472 12.477 22.3633 12.2899 22.3633 12.0934Z"
        fill="black" />
</svg>