<svg width="20" height="20" viewBox="0 0 20 20" fill="none" xmlns="http://www.w3.org/2000/svg">
    <path
        d="M11.294 18.0944V18.493H8.79686V16.3739H10.5161C10.4354 16.0187 10.3961 15.6572 10.3961 15.2916V15.2296H8.79686V13.1105H10.9195C10.9216 13.1064 10.9236 13.1002 10.9257 13.0961C11.252 12.4422 11.7823 11.8052 12.4836 11.3219V9.84303H14.9828V10.473C15.4768 10.4456 16.0386 10.51 16.4041 10.6114V0.0859375H0V19.9141H13.8283C12.8043 19.6042 11.9126 18.9619 11.294 18.0944ZM11.2937 11.9637H8.79707V9.84425H11.2937L11.2937 11.9637ZM11.2937 8.69921H8.79707V6.57977H11.2937L11.2937 8.69921ZM14.9818 8.69921H12.4851V6.57977H14.9818V8.69921ZM1.42134 1.50489H14.9828V5.27636H1.42134V1.50489ZM3.91762 18.4926H1.42098V16.3732H3.91764L3.91762 18.4926ZM3.91762 15.2282H1.42098V13.1087H3.91764L3.91762 15.2282ZM3.91762 11.9637H1.42098V9.84425H3.91764L3.91762 11.9637ZM3.91762 8.69921H1.42098V6.57977H3.91764L3.91762 8.69921ZM7.60567 18.4926H5.10902V16.3732H7.60567V18.4926ZM7.60567 15.2282H5.10902V13.1087H7.60567V15.2282ZM7.60567 11.9637H5.10902V9.84425H7.60567V11.9637ZM7.60567 8.69921H5.10902V6.57977H7.60567V8.69921ZM17.315 10.7276C18.2065 11.1336 18.9577 11.7905 19.4784 12.6123L19.8281 12.3915C19.5484 11.95 19.2069 11.5517 18.813 11.2075C18.4155 10.8594 17.9693 10.5715 17.4867 10.3518L17.315 10.7276Z"
        fill="#000" />
    <path
        d="M16.1976 10.986C14.1853 10.5294 12.1632 11.5483 11.2932 13.2855C9.83413 16.101 11.823 19.7066 15.2292 19.7066C17.6612 19.7066 19.6535 17.7396 19.6535 15.2917C19.6535 13.1873 18.1719 11.4216 16.1976 10.986ZM15.2296 14.7498C16.1248 14.7498 16.8504 15.4763 16.8504 16.3679C16.8504 17.073 16.3974 17.673 15.7663 17.8938V18.6203H14.6929V17.8938C14.0618 17.673 13.6088 17.073 13.6088 16.3679H14.6822C14.6822 16.67 14.9291 16.9144 15.2296 16.9144C15.5323 16.9144 15.777 16.67 15.777 16.3679C15.777 16.0678 15.5323 15.8213 15.2296 15.8213C14.3366 15.8213 13.6088 15.097 13.6088 14.2033C13.6088 13.5003 14.0618 12.8981 14.6929 12.6795V11.9637H15.7663V12.6773C16.3975 12.8981 16.8504 13.4981 16.8504 14.2032H15.777C15.777 13.9032 15.5323 13.6568 15.2296 13.6568C14.9291 13.6568 14.6822 13.9032 14.6822 14.2032C14.6822 14.5054 14.9291 14.7498 15.2296 14.7498Z"
        fill="#000" />
    <path d="M17.6074 4.09891H17.1936V8.51748H17.6074V4.09891Z" fill="#000" />
    <path d="M17.6074 2.11173H17.1936V3.16695H17.6074V2.11173Z" fill="#000" />
    <path d="M13.6651 2.41966H13.2513V4.37355H13.6651V2.41966Z" fill="#000" />
    <path d="M12.1525 2.41966H11.7388V4.37355H12.1525V2.41966Z" fill="#000" />
    <path d="M10.6382 2.41966H10.2244V4.37355H10.6382V2.41966Z" fill="#000" />
    <path d="M9.12597 2.41966H8.7122V4.37355H9.12597V2.41966Z" fill="#000" />
</svg>